<svg id="icons" xmlns="http://www.w3.org/2000/svg" viewBox="0 0 84.53 113.39"><defs><style>.cls-1{fill:#595959;}</style></defs><title>cita</title><path class="cls-1" d="M496.67,146.5a3.09,3.09,0,0,0-3.37,3.25v18.34l21.59-21.59Z" transform="translate(-437.86 -63.69)"/><path class="cls-1" d="M517.32,73H486.54a1.94,1.94,0,0,0,.21,1c.29.47,1.31.75,2.75.75,10.24,0,14.25,4.66,15.83,8.28h8.36a3.05,3.05,0,0,1,3,3V146.5L493.3,169.94H446.57a3.05,3.05,0,0,1-3-3V86a3.05,3.05,0,0,1,3-3h5.87c1.57-3.62,5.59-8.28,15.82-8.28,1.44,0,2.46-.28,2.75-.75a1.92,1.92,0,0,0,.21-1H442.93a5.08,5.08,0,0,0-5.07,5.07v94a5.08,5.08,0,0,0,5.07,5.07h74.39a5.08,5.08,0,0,0,5.07-5.07v-94A5.08,5.08,0,0,0,517.32,73Z" transform="translate(-437.86 -63.69)"/><path class="cls-1" d="M468.26,77.69c-13.84,0-13.84,9.45-13.84,9.45h48.93s0-9.45-13.85-9.45c-9.86,0-4.49-10.22-4.49-10.22s2.13-3.78-.83-3.78h-10.6c-3,0-.83,3.78-.83,3.78S478.12,77.69,468.26,77.69Z" transform="translate(-437.86 -63.69)"/><path class="cls-1" d="M509.08,103H452a1.54,1.54,0,0,0,0,3h57a1.54,1.54,0,0,0,0-3Z" transform="translate(-437.86 -63.69)"/><path class="cls-1" d="M510.28,131.84a1.53,1.53,0,0,0-1.2-1.5H452a1.54,1.54,0,0,0,0,3h57A1.53,1.53,0,0,0,510.28,131.84Z" transform="translate(-437.86 -63.69)"/><path class="cls-1" d="M452,157.66a1.54,1.54,0,0,0,0,3h32.64a1.54,1.54,0,0,0,0-3Z" transform="translate(-437.86 -63.69)"/></svg>