<svg id="icons" xmlns="http://www.w3.org/2000/svg" viewBox="0 0 125.02 113.39"><defs><style>.cls-1{fill:#595959;}</style></defs><title>services</title><path class="cls-1" d="M126.21,101.51a14.94,14.94,0,0,0-12.68,7q-1.87-.94-3.79-1.83a3,3,0,0,0-1.8-2.81,136.61,136.61,0,0,0-16.62-6V95.45c.54-.16,1.07-.33,1.57-.52A25.22,25.22,0,0,0,98,92.09a26.91,26.91,0,0,0,2.16-1.68,3,3,0,0,0,1-2.52c8-6.85,12.63-16.65,15.5-25.75a110.61,110.61,0,0,0,3.29-13.67c.72-4,1.13-7.27,1.43-9.19a17.4,17.4,0,0,0,.22-2.63,10.65,10.65,0,0,0-.73-4.07,7.24,7.24,0,0,0-2.66-3.32,5.91,5.91,0,0,0-1.62-.77l-7.66-3a.75.75,0,0,0-.48-.74l-4.08-1.52a4.34,4.34,0,1,0-1.54,4.14l4.08,1.52a.75.75,0,0,0,.86-.26l7.79,3.07.1,0a3.15,3.15,0,0,1,1.3.86,5.64,5.64,0,0,1,1.3,4.1,14,14,0,0,1-.18,2.12c-.31,2-.71,5.2-1.42,9.12a94.83,94.83,0,0,1-5.83,20.4c-2.73,6.38-6.54,12.46-11.79,17a3,3,0,0,0-2.87.62h0A23.45,23.45,0,0,1,93.2,88a16.8,16.8,0,0,1-2.62,1.33,7.57,7.57,0,0,1-2.31.55,7.67,7.67,0,0,1-2.4-.58A19.32,19.32,0,0,1,82,87.17c-.52-.37-.95-.7-1.23-.93L80.48,86l-.08-.06h0a3,3,0,0,0-2.88-.61C70.3,79.06,65.85,69.9,63.1,61.14a108.32,108.32,0,0,1-3.2-13.25c-.7-3.91-1.1-7.11-1.41-9.12a13.66,13.66,0,0,1-.18-2.12,7.29,7.29,0,0,1,.48-2.8A3.87,3.87,0,0,1,60.22,32a3,3,0,0,1,.55-.3l.13,0h0l.1,0,7.81-3.07a.75.75,0,0,0,.89.28l4.05-1.61a4.34,4.34,0,1,0-1.63-4.11l-4.05,1.61a.76.76,0,0,0-.47.71l-7.63,3A6.31,6.31,0,0,0,57.42,30a7.39,7.39,0,0,0-1.72,2.56A10.58,10.58,0,0,0,55,36.65a17,17,0,0,0,.22,2.63c.3,1.92.71,5.19,1.43,9.19a98,98,0,0,0,6,21.13c2.88,6.71,6.94,13.27,12.75,18.27a3,3,0,0,0,1,2.54A29.13,29.13,0,0,0,80,93a23.13,23.13,0,0,0,3.66,1.88,16.84,16.84,0,0,0,1.64.54v.81a140.87,140.87,0,0,0-33.41-4c-12.61,0-21.41,2.85-27.19,6.83a22,22,0,0,0-6.41,6.58,13.61,13.61,0,0,0-2.13,7,16.35,16.35,0,0,0,1.34,6.51A17,17,0,0,0,21,124.39a25.64,25.64,0,0,0,10.79,6.12c4.82,1.5,11,2.39,18.85,2.39A75.09,75.09,0,0,0,68.79,131a39.62,39.62,0,0,0,10-3.87,23.49,23.49,0,0,0,12.52-21.4v-1.51a131,131,0,0,1,14.2,5.26,3,3,0,0,0,3.2-.51q1.87.86,3.69,1.77a15,15,0,1,0,13.8-9.18Zm-40.91,4.17a18.82,18.82,0,0,1-1.75,8.25A16.6,16.6,0,0,1,79.76,119,26.68,26.68,0,0,1,69,124.67a65.82,65.82,0,0,1-18.28,2.21A61.5,61.5,0,0,1,35,125.17a25.86,25.86,0,0,1-6.92-2.83,12.56,12.56,0,0,1-4.85-5,10.26,10.26,0,0,1-1.11-4.66,7.67,7.67,0,0,1,1.26-3.84c1.39-2.29,4.08-4.9,8.65-7s11-3.55,19.81-3.55a134.78,134.78,0,0,1,33.41,4.14Zm40.91,17.66a6.86,6.86,0,1,1,6.86-6.86A6.86,6.86,0,0,1,126.21,123.34Z" transform="translate(-16.15 -19.51)"/><circle class="cls-1" cx="110.06" cy="96.97" r="3.77"/></svg>