<svg id="icons" xmlns="http://www.w3.org/2000/svg" viewBox="0 0 113.03 113.11"><defs><style>.cls-1{fill:#595959;}</style></defs><title>tratamientos</title><path class="cls-1" d="M624.26,421.44l-6.3,6.3c-2.14,2.14-4.22,1.85-5.67.41s-1.73-3.52.41-5.67l6.3-6.3ZM705,328a5.17,5.17,0,1,0,7.31,0A5.17,5.17,0,0,0,705,328Zm17.7,10.26-.09.17c-.15.32-.31.65-.49,1h0v0q-.27.47-.57.92l-.23.33-.28.4-.4.54-.13.14-.06.08-.55.61-.17.2-3.89,3.9-26.6,26.61-.27.26-.85.85-1,.91-.54.4c-.23.17-.47.33-.71.49a41.5,41.5,0,0,1-5.38,3.57l-25.91,13.7a44,44,0,0,0-8.77,6.47l-20.13,20.13-5.26-5.26,20.13-20.12a43.93,43.93,0,0,0,6.47-8.77l13.71-25.9a41.22,41.22,0,0,1,3.56-5.37c.24-.36.48-.71.75-1.05l.33-.42.72-.81.91-.91.2-.21,26.61-26.61,3.91-3.89.08-.07.72-.65.05,0,.16-.15.54-.4.47-.33.23-.16c.32-.21.64-.41,1-.6l.23-.12.78-.4.44-.2.63-.26.48-.17.63-.2.47-.14.78-.18.56-.11.83-.13.51,0,.62,0,.54,0h.47c.35,0,.69,0,1,0l.38,0c.38,0,.75.09,1.13.16l.26,0a15.48,15.48,0,0,1,2.74.81l.28.12c.34.14.68.3,1,.47l.37.2q.45.25.89.53l.36.23c.3.21.6.43.9.66l.28.21c.38.31.75.64,1.11,1a15.36,15.36,0,0,1,3.38,5.11l.11.26c0,.13.08.26.13.38s.19.54.27.81h0A15.78,15.78,0,0,1,722.72,338.27Zm-5.19-15.45a12.41,12.41,0,0,0-8.83-3.64,12.85,12.85,0,0,0-6.3,1.65,12.69,12.69,0,0,0-1.62,1.08l-.34.26-.63.56-31.61,31.61h0c-.19.25-.38.46-.54.63l-.26.33a12.81,12.81,0,0,0-1.08,1.62,12.66,12.66,0,0,0,2,15.13,12.4,12.4,0,0,0,8.83,3.64,12.76,12.76,0,0,0,7.64-2.53l.43-.32c.32-.29.58-.52.82-.72l31.6-31.6h0c.2-.25.43-.51.7-.8l.31-.42a13.21,13.21,0,0,0,.89-1.37A12.66,12.66,0,0,0,717.53,322.82ZM692,345.75a.45.45,0,0,0,0-.66.44.44,0,1,0-.6.63A.45.45,0,0,0,692,345.75Zm-.18,3.63-.1-.12-.08-.15-.07-.17-.05-.17,0-.16,0-.14,0-.12,0-.07-1.15-1.15-.12,0-.13.06-2.29,2.29-.06.13,0,.12,3.1,3.1.12,0,.13-.06,2-2,.06-.13,0-.12Zm11.34-8.18a2.34,2.34,0,0,1,0,3.3l-22.46,22.46a2.34,2.34,0,0,1-3.3,0l-4-4a2.34,2.34,0,0,1,0-3.3l22.46-22.46a2.35,2.35,0,0,1,3.3,0ZM691,346a.87.87,0,1,0,0-1.2A.81.81,0,0,0,691,346Zm-7,14.47v-.15l-.06-.12-1.89-1.89-.11-.07-.12,0h-.53l-.11,0-.09-.05-1.4-1.4-.1,0h-.13l-.13.06-.1.08-2.79,2.79,0,.06v.15l0,.06.27.27.06,0h.07l.07,0,.05,0,2.42-2.42.06,0,.07,0h.07l.06,0,1,1,0,.06v.09l0,.09,0,.07-2.4,2.4,0,.06,0,.08v.08l0,.06.26.26.08,0h.09l.09,0,.08-.06,2.43-2.43,0,0h.08l0,0,1.33,1.33,0,.05v.06l0,.06,0,0-2.42,2.42,0,.07,0,.09v.09l0,.07.28.28.05,0h.07l.07,0,.06,0,3.16-3.16.07-.12Zm3-2.92v-.09l0-.07-.58-.58-.06,0-.07,0h-.07l-.05,0L686,357l0,0h-.05l-.05,0,0,0-3.19-3.19-.06,0h-.14l-.06,0-.61.61,0,.06,0,.07v.07l0,.06.32.32.05,0h.12l.05,0,.17-.17,0,0h.1l0,0,2.7,2.7,0,.07,0,.07-.14.14,0,.07v.09l0,.1,0,.07.54.54.09,0h.1l.11,0,.09-.06.86-.86,0-.08Zm2.73-2.71,0-.17-.11-.16-.15-.1-.17,0-.17,0-.16.1-.1.15,0,.18,0,.18.1.15.16.11.17,0,.17,0,.15-.1.1-.16Zm4.5-4.58,0-.15-.09-.14-3.74-3.74-.13-.08-.15,0-.15,0-.13.08-3.09,3.09-.09.13,0,.15,0,.15.09.13,3.74,3.74.13.09.15,0,.15,0,.13-.09,3.09-3.09.08-.13Zm5.81-5.81,0-.15-.07-.11L698.76,343l-.07,0-.08,0h-.08l-.07,0-.23.23,0,.06v.08l0,.08,0,.07.83.83,0,.06,0,.07v.07l0,.06-2,2,0,0-.06,0h-.07l-.08-.05-1.11-1.11-.15-.12-.17-.09-.18-.07-.17,0-.16,0-.14,0-.1,0-.06,0-1.19-1.19,0-.05,0-.07v-.07l0-.06,2-2,.06,0h.07l.07,0,.06,0,.4.4.07,0h.08l.07,0,.06,0,.61-.61,0-.06v-.08l0-.08,0-.06-.77-.77-.1-.05h-.13l-.13,0-.1.07-3.17,3.17-.07.11,0,.14,0,.13.06.1,3.81,3.81.11.06.14,0,.14,0,.12-.07,3.12-3.12.07-.12Z" transform="translate(-611.15 -316.18)"/></svg>