<svg id="icons" xmlns="http://www.w3.org/2000/svg" viewBox="0 0 77.26 113.39"><defs><style>.cls-1{fill:#595959;}</style></defs><title>doctores</title><path class="cls-1" d="M143.11,140.38c-1.36-4.76-5.87-13.75-20.77-17.62l-.1-.16s0,.06,0,.14l-.1,0,.06-.16c-1.8-4.73-2.48-5.41-2.48-5.41a1.07,1.07,0,0,0-.35-.15v-1.36A33.77,33.77,0,0,0,126,104.92h.2c1.7,0,3.46-1.95,4.08-4.65s-.18-5.42-1.84-6c1.33-5,2.14-10.13,1.44-13.35-.93-4.26-4.41-4.11-4.41-4.11s2-4.76-3.72-8.75c-9.57-6.84-22.2-4.85-31.26.95-3.83,2.45-7.44,4.9-10.09,5.78-3.63,1.2-5.65.3-5.65.3s.31,4,5.32,6.56c-.45,3.23.33,8,1.56,12.62-1.67.61-2.5,3.23-1.86,6s2.38,4.65,4.08,4.65l.27,0a34.35,34.35,0,0,0,6.59,10.43V117a1.08,1.08,0,0,0-.35.15s-.68.68-2.48,5.41l.06.16-.1,0c0-.08,0-.13,0-.13h0l-.1.16-1.38.37c-13.78,4-18.06,12.59-19.38,17.21a27.49,27.49,0,0,0-.59,5.42V166S75,175.94,101,177l.13.09h2.39a170.55,170.55,0,0,1-10.1-24.47l0-.13-.13-.4,0-.1c-4.59-14.54-5.27-24.51-5.35-28,.07-.39.13-.72.18-1,3.85,10.65,10.21,16.14,10.21,16.14s.59.76.9,0a13.66,13.66,0,0,1,2.28-6.18l.68.33a9,9,0,0,0-1.1,2.52,4.74,4.74,0,0,0,1.38,3.62S99,153.25,98.7,163.86a137.4,137.4,0,0,0,6,13.2h.81a137.68,137.68,0,0,0,6-13.2c-.32-10.61-3.71-24.47-3.71-24.47a4.75,4.75,0,0,0,1.38-3.62,9.12,9.12,0,0,0-1-2.42l.6-.26a13.73,13.73,0,0,1,2.17,6c.31.76.9,0,.9,0s6.36-5.5,10.21-16.14c.06.29.12.62.18,1-.08,3.48-.76,13.5-5.39,28.12l-.12.37a170.22,170.22,0,0,1-10.14,24.61H109l.09-.07c26.82-.85,34.62-11,34.62-11V146.94A37.88,37.88,0,0,0,143.11,140.38ZM69.22,145.8a23.72,23.72,0,0,1,.48-4.69c1.14-4,4.77-11.07,16.12-14.85a48.91,48.91,0,0,0-5,17.9c-.1,1.29-.08,2-.08,2l11.88,5.95h0l0,0h0l-.09.07-.08.07,0,0-.13.11,0,0c-.65.57-2.17,1.95-5.79,5.28A81.22,81.22,0,0,0,97.79,174c-18-1.34-26.3-7.21-28.57-9.16Zm37.45-15,.11.08-1.44.61H105l-1.86-.9a28.36,28.36,0,0,1-9.53-9v-3.39c4.05,3.55,8.38,5.67,11.47,5.67,3.3,0,7.54-2,11.47-5.4v3.12A28.3,28.3,0,0,1,106.67,130.78Zm13.77-34.71a1.42,1.42,0,0,0-1.25-.7H108.5a1.36,1.36,0,0,0-1.32.88H103a1.4,1.4,0,0,0-1.34-.88H91a1.38,1.38,0,0,0-1.24.69l-6.16-1c-.15-2.17-.3-4.78,1.14-6.76a8.87,8.87,0,0,0,1.83-4.94c24.88,3,37.2-4.89,37.2-4.89a30.34,30.34,0,0,0-.26,3.77c0,2.8,1.69,5.4,2.13,6.26,1,2.06.9,4.53.8,6.59Zm-1.13.77-.58,4.43a.63.63,0,0,1-.56.49h-8.46a.69.69,0,0,1-.6-.52l-.7-4.44V96.7h10.77l.11,0Zm-17.48,0-.58,4.43a.63.63,0,0,1-.56.49H92.24a.69.69,0,0,1-.6-.52l-.7-4.44V96.7H101.7l.11,0Zm-15.87,5a1.15,1.15,0,0,1-.94.61,1.45,1.45,0,0,1-1.08-.36,3.94,3.94,0,0,1-1.41-2.47,4.73,4.73,0,0,1,0-2.41c.18.57.36,1.14.54,1.7.59-.47.67-1.45.62-2.67l6,1,.66,4.19a2,2,0,0,0,1.91,1.63h8.45a1.94,1.94,0,0,0,1.87-1.64l.53-4h4.1l.63,4a2,2,0,0,0,1.91,1.63h8.46a1.94,1.94,0,0,0,1.87-1.64l.55-4.19,5.83-.95c0,1.23.07,2.19.65,2.65.18-.54.36-1.1.54-1.67a4.79,4.79,0,0,1,0,2.38,3.93,3.93,0,0,1-1.42,2.47,1.66,1.66,0,0,1-1.07.34,1.16,1.16,0,0,1-.92-.52l-.75,2C119.48,114.36,109.91,121,105.06,121c-4.61,0-14.27-6.83-18.31-17.13Zm54.94,63c-2.09,1.95-10,7.94-28.63,9.15a81,81,0,0,0,11.5-16.24c-5.28-4.87-6.13-5.58-6.24-5.67l11.88-5.95a47.25,47.25,0,0,0-5.09-19.92c11.53,3.87,15.06,11.13,16.12,14.87a33.45,33.45,0,0,1,.47,5.79Z" transform="translate(-66.43 -63.7)"/><polygon class="cls-1" points="39.16 113.39 38.7 113.37 38.23 113.39 39.16 113.39"/><polygon class="cls-1" points="13.16 82.56 9.71 82.56 9.71 86.61 5.66 86.61 5.66 90.06 9.71 90.06 9.71 94.12 13.16 94.12 13.16 90.06 17.21 90.06 17.21 86.61 13.16 86.61 13.16 82.56"/></svg>