<svg id="Layer_1" data-name="Layer 1" xmlns="http://www.w3.org/2000/svg" viewBox="0 0 44.74 33.56"><defs><style>.cls-1{fill:#6866ad;}</style></defs><title>mail</title><path class="cls-1" d="M61.07,53.52a5.52,5.52,0,0,1-.72,2.69L46.23,40.4l14-12.23a5.57,5.57,0,0,1,.87,3Z" transform="translate(-16.33 -25.55)"/><path class="cls-1" d="M38.7,43.27l19.44-17a5.48,5.48,0,0,0-2.66-.71H21.92a5.46,5.46,0,0,0-2.66.71Z" transform="translate(-16.33 -25.55)"/><path class="cls-1" d="M44.12,42.24l-4.5,3.95a1.41,1.41,0,0,1-1.84,0l-4.5-3.95L19,58.25a5.48,5.48,0,0,0,2.95.86H55.48a5.48,5.48,0,0,0,2.95-.86Z" transform="translate(-16.33 -25.55)"/><path class="cls-1" d="M17.2,28.17a5.57,5.57,0,0,0-.87,3V53.52a5.49,5.49,0,0,0,.72,2.69L31.17,40.4Z" transform="translate(-16.33 -25.55)"/></svg>