<svg id="icons" xmlns="http://www.w3.org/2000/svg" viewBox="0 0 113.1 101.29"><defs><style>.cls-1{fill:#595959;}</style></defs><title>pastillas</title><path class="cls-1" d="M442.45,328c-10.3,0-18.74,8.85-18.76,19.71l-.06,30h0l0,31.83c0,10.86,8.39,19.76,18.69,19.78h0c10.28,0,18.71-8.86,18.73-19.71l0-31.38h0l.06-30.41C461.15,336.92,452.75,328,442.45,328Zm-15.06,19.62a4.47,4.47,0,1,1,8.91,0V374h-8.91Zm30.18,61.95c0,9-6.86,16.26-15.29,16.26a14.69,14.69,0,0,1-10.7-4.74A16.71,16.71,0,0,1,427,409.51l0-28.38h30.53Z" transform="translate(-423.58 -328)"/><path class="cls-1" d="M477,369.63a34.94,34.94,0,0,0-1.19,48.17l49.35-49.36A34.94,34.94,0,0,0,477,369.63Z" transform="translate(-423.58 -328)"/><path class="cls-1" d="M527.63,370.89l-49.35,49.35a34.94,34.94,0,0,0,49.35-49.35Z" transform="translate(-423.58 -328)"/></svg>