<svg id="Layer_1" data-name="Layer 1" xmlns="http://www.w3.org/2000/svg" viewBox="0 0 42.27 43.41"><defs><style>.cls-1{fill:#6866ad;}</style></defs><title>telf</title><path class="cls-1" d="M59.5,54.88a2.13,2.13,0,0,1-.63,1.84l-5.95,6.07a3.28,3.28,0,0,1-1.05.78,4.28,4.28,0,0,1-1.28.41l-.27,0a4.83,4.83,0,0,1-.58,0,20.08,20.08,0,0,1-2.75-.3,20.48,20.48,0,0,1-4.66-1.47,39.24,39.24,0,0,1-6.24-3.52,46.75,46.75,0,0,1-7.42-6.44,50.1,50.1,0,0,1-5.2-6.07,43.58,43.58,0,0,1-3.31-5.36,29.22,29.22,0,0,1-1.88-4.46A24.51,24.51,0,0,1,17.43,33a11.45,11.45,0,0,1-.18-2.28q0-.82,0-.92a4.82,4.82,0,0,1,.4-1.31,3.6,3.6,0,0,1,.76-1.08l6-6.11a1.94,1.94,0,0,1,1.43-.64,1.66,1.66,0,0,1,1,.34,3.24,3.24,0,0,1,.76.85l4.79,9.34a2.31,2.31,0,0,1,.23,1.61,2.88,2.88,0,0,1-.76,1.47L29.7,36.49a.74.74,0,0,0-.16.3,1.23,1.23,0,0,0-.07.34,8.51,8.51,0,0,0,.81,2.21A20.44,20.44,0,0,0,31.93,42a28.82,28.82,0,0,0,3.18,3.66A29.69,29.69,0,0,0,38.69,49,20.66,20.66,0,0,0,41.3,50.7a6.72,6.72,0,0,0,1.61.66l.56.12a1.15,1.15,0,0,0,.29-.07.78.78,0,0,0,.3-.16l2.55-2.67a2.7,2.7,0,0,1,1.88-.74,2.3,2.3,0,0,1,1.21.28h0l8.63,5.24a2.31,2.31,0,0,1,1.12,1.52Zm0,0" transform="translate(-17.25 -20.63)"/></svg>