<svg id="icons" xmlns="http://www.w3.org/2000/svg" viewBox="0 0 110.57 95.41"><defs><style>.cls-1{fill:#595959;}</style></defs><title>blog</title><path class="cls-1" d="M151.73,594.14a29.37,29.37,0,0,0-17.86-8.5,29.69,29.69,0,0,0-3-.15c-11.12,0-23.54,12.9-23.54,12.9a3.15,3.15,0,0,1-4.55,0s-10.73-11.15-21.18-12.72a16.13,16.13,0,0,0-2.36-.18A29.47,29.47,0,0,0,49.78,615a17.34,17.34,0,0,0,.3,3.12c1.53,8.35,8.38,17,8.38,17,1.12,1.42,3.08,3.62,4.35,4.9l13.92,13.92,13,13,13,13a3.29,3.29,0,0,0,4.64,0l15.4-15.4,10.61-10.61L147.32,640c1.27-1.28,3.24-3.48,4.35-4.9,0,0,6.84-8.68,8.37-17a17.4,17.4,0,0,0,.3-3.12A29.37,29.37,0,0,0,151.73,594.14Zm-81.5,12.49c-4.87,5.59-10,16-1,31-14.25-14.78-16.64-31-2.52-40.49l5.41,7.56S70.85,605.91,70.22,606.63Zm3.88-3.07c-2.66-4.79-4.53-7.86-4.53-7.86s4.66-2.8,8.39-2c1.73,6.13,2.4,8.12,2.4,8.12A11,11,0,0,0,74.1,603.56Z" transform="translate(-49.78 -585.49)"/></svg>