<svg id="icons" xmlns="http://www.w3.org/2000/svg" viewBox="0 0 141.85 82.14"><defs><style>.cls-1{fill:#595959;}</style></defs><title>home</title><rect class="cls-1" x="123.96" y="61.24" width="7.1" height="7.1"/><rect class="cls-1" x="111.05" y="61.24" width="7.1" height="7.1"/><rect class="cls-1" x="98.14" y="61.24" width="7.1" height="7.1"/><rect class="cls-1" x="123.96" y="48.36" width="7.1" height="7.1"/><rect class="cls-1" x="111.05" y="48.36" width="7.1" height="7.1"/><rect class="cls-1" x="98.14" y="48.36" width="7.1" height="7.1"/><rect class="cls-1" x="123.96" y="35.49" width="7.1" height="7.1"/><rect class="cls-1" x="111.05" y="35.49" width="7.1" height="7.1"/><rect class="cls-1" x="98.14" y="35.49" width="7.1" height="7.1"/><rect class="cls-1" x="36.09" y="61.24" width="7.1" height="7.1"/><rect class="cls-1" x="23.17" y="61.24" width="7.1" height="7.1"/><rect class="cls-1" x="10.26" y="61.24" width="7.1" height="7.1"/><rect class="cls-1" x="36.09" y="48.36" width="7.1" height="7.1"/><rect class="cls-1" x="23.17" y="48.36" width="7.1" height="7.1"/><rect class="cls-1" x="10.26" y="48.36" width="7.1" height="7.1"/><rect class="cls-1" x="36.09" y="35.49" width="7.1" height="7.1"/><rect class="cls-1" x="23.17" y="35.49" width="7.1" height="7.1"/><rect class="cls-1" x="10.26" y="35.49" width="7.1" height="7.1"/><path class="cls-1" d="M549.89,628.51a1.15,1.15,0,0,0,1.16-1.13v-4a1.15,1.15,0,0,0-1.16-1.13H502.54V605h1.76a1.14,1.14,0,0,0,1.13-1.13v-4a1.14,1.14,0,0,0-1.13-1.13H456a1.14,1.14,0,0,0-1.13,1.13v4A1.14,1.14,0,0,0,456,605h1.76v17.21H410.37a1.15,1.15,0,0,0-1.16,1.13v4a1.15,1.15,0,0,0,1.16,1.13h.89v44.78h-.89a1.15,1.15,0,0,0-1.16,1.13v5.34a1.15,1.15,0,0,0,1.16,1.13H549.89a1.15,1.15,0,0,0,1.16-1.13v-5.34a1.15,1.15,0,0,0-1.16-1.13H549V628.51Zm-92.17,43H414.33V628.77h43.38Zm41.83.08h-6.36v-20h4a.6.6,0,0,0,.6-.6v-5.08a.6.6,0,0,0-.6-.6h-34a.6.6,0,0,0-.6.6V651a.6.6,0,0,0,.6.6h4.23v20h-6.64V605h38.83v66.56Zm46.38-.08H502.54V628.77h43.38Z" transform="translate(-409.2 -598.76)"/><rect class="cls-1" x="80.42" y="35.49" width="7.1" height="7.1"/><rect class="cls-1" x="67.51" y="35.49" width="7.1" height="7.1"/><rect class="cls-1" x="54.6" y="35.49" width="7.1" height="7.1"/><polygon class="cls-1" points="81.04 16.31 74.61 16.31 74.61 9.89 67.51 9.89 67.51 16.31 61.09 16.31 61.09 23.41 67.51 23.41 67.51 29.84 74.61 29.84 74.61 23.41 81.04 23.41 81.04 16.31"/></svg>