<svg id="Layer_1" data-name="Layer 1" xmlns="http://www.w3.org/2000/svg" viewBox="0 0 46.76 43.55"><defs><style>.cls-1{fill:#c44e9c;}</style></defs><title>house</title><path class="cls-1" d="M60.82,41.35l-7.09-7.09V26.08a2.68,2.68,0,0,0-5.36,0V28.9l-5.28-5.28a7,7,0,0,0-9.75,0L15.63,41.35a2.68,2.68,0,0,0,3.79,3.79L37.13,27.42a1.59,1.59,0,0,1,2.17,0L57,45.14a2.68,2.68,0,0,0,3.79-3.79Zm0,0" transform="translate(-14.84 -21.67)"/><path class="cls-1" d="M39.15,32.51a1.32,1.32,0,0,0-1.86,0L21.7,48.09a1.32,1.32,0,0,0-.38.93V60.39a4.83,4.83,0,0,0,4.82,4.83h7.72v-12h8.71v12h7.71a4.83,4.83,0,0,0,4.83-4.83V49a1.33,1.33,0,0,0-.39-.93Zm0,0" transform="translate(-14.84 -21.67)"/></svg>