<svg id="Layer_1" data-name="Layer 1" xmlns="http://www.w3.org/2000/svg" viewBox="0 0 135.64 75.59"><defs><style>.cls-1{fill:#6866ad;}.cls-2{fill:#97a5d3;}.cls-3{fill:#c44e9c;}.cls-4{fill:#fff;}</style></defs><title>logoRepro</title><path class="cls-1" d="M413.64,267.49a31.87,31.87,0,0,1,3.86-.23c2.3,0,3.69.33,4.76,1.09A4.46,4.46,0,0,1,424,272a4.74,4.74,0,0,1-3.16,4.35l3.65,6.27H420l-2.65-5.27H416l-.79,5.27h-3.88Zm2.79,7.2h1.67a2.36,2.36,0,0,0,2.09-2.21c.07-1.32-.86-2.18-2.39-2.18-.19,0-.44,0-.72,0Z" transform="translate(-411.37 -242.37)"/><path class="cls-1" d="M433.72,281a6.92,6.92,0,0,1-5,2,4.21,4.21,0,0,1-3.39-1.63,5,5,0,0,1-.91-3.21,7.74,7.74,0,0,1,1.84-4.67,5.89,5.89,0,0,1,4.25-2c2.44,0,3.81,1.07,3.81,3,0,2.09-2.14,3.67-6.13,4.53a1.64,1.64,0,0,0,1.58,1.49c1.09,0,2-.4,3.37-1.56Zm-2.3-6.13a.85.85,0,0,0-.91-.93c-1.14,0-2.11,1.35-2.39,3.35C430.11,276.76,431.35,275.86,431.42,274.83Z" transform="translate(-411.37 -242.37)"/><path class="cls-1" d="M439.71,273.72a6,6,0,0,1,1.51-1.51,3.72,3.72,0,0,1,2-.63c2.18,0,3.32,1.53,3.18,4.32a7.75,7.75,0,0,1-2.74,6,5.4,5.4,0,0,1-4,1l-1-.16-.77,5.07h-3.55l1-6.48a8.36,8.36,0,0,1-1.42-1.7l.93-2.6a7.34,7.34,0,0,0,.93,1.35l1.16-7.74,3.3-.44Zm-.63,6.25a2.89,2.89,0,0,0,1.18.16,2.26,2.26,0,0,0,2-1.58,5.8,5.8,0,0,0,.44-2.63c-.07-.81-.49-1.25-1.11-1.21s-1.18.46-2,1.67Z" transform="translate(-411.37 -242.37)"/><path class="cls-1" d="M455,275.11c-.19,0-.33,0-.42,0-1.63-.09-2.81.91-3.76,3.11l-.67,4.44h-3.55l1-6.41c.07-.37.12-.81.16-1.35a8.49,8.49,0,0,0,.07-1.42,3,3,0,0,0-.28-1.12l3-.74a2.18,2.18,0,0,1,.7,1.7,7.66,7.66,0,0,1-.09,1.18c1.18-2.16,2-2.83,3.39-2.9a2.76,2.76,0,0,1,.91.12Z" transform="translate(-411.37 -242.37)"/><path class="cls-1" d="M464.26,273a4.85,4.85,0,0,1,1.14,3.51,7.49,7.49,0,0,1-1.72,4.48,5.67,5.67,0,0,1-4.25,2c-3,0-4.86-1.79-4.86-4.81,0-3.65,2.72-6.64,6-6.64A4.53,4.53,0,0,1,464.26,273Zm-6,5c0,1.3.53,2.09,1.39,2.09,1.28,0,2.14-1.42,2.14-3.51,0-1.35-.58-2.16-1.53-2.16C459.1,274.42,458.22,276,458.22,278Z" transform="translate(-411.37 -242.37)"/><path class="cls-2" d="M419.93,304.88a1.07,1.07,0,0,1-1.2,1.17c-.79,0-1.25-.36-1.25-1.17v-1.95h.41v1.95a.76.76,0,0,0,.85.83.73.73,0,0,0,.8-.83v-1.95h.41Z" transform="translate(-411.37 -242.37)"/><path class="cls-2" d="M421.77,302.93h.43l1.61,2.47h0v-2.47h.38v3h-.44l-1.59-2.45h0V306h-.38Z" transform="translate(-411.37 -242.37)"/><path class="cls-2" d="M426.88,302.93h.45l1.19,3h-.45l-.33-.92h-1.29l-.34.92h-.42Zm-.3,1.79h1l-.51-1.42h0Z" transform="translate(-411.37 -242.37)"/><path class="cls-2" d="M433.24,302.93h.45l1.19,3h-.45l-.33-.92H432.8l-.34.92H432Zm-.3,1.79h1l-.51-1.42h0Z" transform="translate(-411.37 -242.37)"/><path class="cls-2" d="M437.38,306h-.46l-1.08-3h.44l.87,2.64h0l.88-2.64h.42Z" transform="translate(-411.37 -242.37)"/><path class="cls-2" d="M440,302.93h2.11v.34h-1.7v1H442v.34h-1.58v1.06h1.71V306H440Z" transform="translate(-411.37 -242.37)"/><path class="cls-2" d="M443.79,302.93h.43l1.61,2.47h0v-2.47h.38v3h-.44l-1.59-2.45h0V306h-.39Z" transform="translate(-411.37 -242.37)"/><path class="cls-2" d="M448.77,303.27h-1v-.34h2.44v.34h-1V306h-.41Z" transform="translate(-411.37 -242.37)"/><path class="cls-2" d="M454.16,304.88a1.07,1.07,0,0,1-1.2,1.17c-.79,0-1.25-.36-1.25-1.17v-1.95h.41v1.95a.76.76,0,0,0,.85.83.73.73,0,0,0,.8-.83v-1.95h.41Z" transform="translate(-411.37 -242.37)"/><path class="cls-2" d="M456,302.93h1.44c.57,0,.93.31.93.8a.73.73,0,0,1-.53.77h0c.35.07.43.33.46.63a1.56,1.56,0,0,0,.18.84H458c-.12-.12-.05-.45-.11-.75s-.12-.55-.51-.55h-1V306H456Zm1.25,1.4c.38,0,.71-.1.71-.54a.48.48,0,0,0-.54-.52h-1v1.06Z" transform="translate(-411.37 -242.37)"/><path class="cls-2" d="M461,302.93h.45l1.19,3h-.45l-.33-.92h-1.29l-.34.92h-.42Zm-.3,1.79h1l-.51-1.42h0Z" transform="translate(-411.37 -242.37)"/><path class="cls-2" d="M466.48,302.93h1.34a.9.9,0,1,1,0,1.8h-.93V306h-.41Zm.41,1.46h.79c.46,0,.67-.2.67-.56s-.21-.56-.67-.56h-.79Z" transform="translate(-411.37 -242.37)"/><path class="cls-2" d="M471.74,302.86a1.6,1.6,0,1,1-1.46,1.6A1.46,1.46,0,0,1,471.74,302.86Zm0,2.85c.74,0,1.06-.64,1.06-1.26s-.31-1.26-1.06-1.26-1.06.64-1.06,1.26S471,305.71,471.74,305.71Z" transform="translate(-411.37 -242.37)"/><path class="cls-2" d="M474.89,302.93h1.44c.57,0,.93.31.93.8a.73.73,0,0,1-.53.77h0c.35.07.43.33.46.63a1.57,1.57,0,0,0,.18.84h-.45c-.12-.12-.05-.45-.11-.75s-.12-.55-.51-.55h-1V306h-.41Zm1.25,1.4c.38,0,.7-.1.7-.54a.48.48,0,0,0-.54-.52h-1v1.06Z" transform="translate(-411.37 -242.37)"/><path class="cls-2" d="M483.55,303.85a.8.8,0,0,0-.85-.65c-.73,0-1,.6-1,1.24s.31,1.28,1,1.28a.86.86,0,0,0,.88-.88H484a1.24,1.24,0,0,1-1.32,1.22,1.4,1.4,0,0,1-1.41-1.59,1.45,1.45,0,0,1,1.44-1.61,1.17,1.17,0,0,1,1.26,1Z" transform="translate(-411.37 -242.37)"/><path class="cls-2" d="M487,302.86a1.6,1.6,0,1,1-1.46,1.6A1.46,1.46,0,0,1,487,302.86Zm0,2.85c.74,0,1.06-.64,1.06-1.26s-.31-1.26-1.06-1.26-1.06.64-1.06,1.26S486.23,305.71,487,305.71Z" transform="translate(-411.37 -242.37)"/><path class="cls-2" d="M490.14,302.93h.56l1,2.56,1-2.56h.55v3h-.38v-2.54h0l-1,2.54h-.35l-1-2.54h0V306h-.39Z" transform="translate(-411.37 -242.37)"/><path class="cls-2" d="M495,302.93h2.11v.34h-1.7v1H497v.34h-1.59v1.06h1.71V306H495Z" transform="translate(-411.37 -242.37)"/><path class="cls-2" d="M498.85,302.93h.43l1.61,2.47h0v-2.47h.38v3h-.44l-1.59-2.45h0V306h-.38Z" transform="translate(-411.37 -242.37)"/><path class="cls-2" d="M502.9,305.64l1.9-2.37H503v-.34h2.23v.34l-1.89,2.37h1.94V306H502.9Z" transform="translate(-411.37 -242.37)"/><path class="cls-2" d="M507.78,302.93h.45l1.19,3H509l-.33-.92h-1.29L507,306h-.42Zm-.3,1.79h1L508,303.3h0Z" transform="translate(-411.37 -242.37)"/><path class="cls-2" d="M510.92,302.93h1.44c.57,0,.93.31.93.8a.73.73,0,0,1-.53.77h0c.35.07.43.33.46.63a1.57,1.57,0,0,0,.18.84h-.45c-.12-.12-.05-.45-.11-.75s-.12-.55-.51-.55h-1V306h-.41Zm1.25,1.4c.38,0,.7-.1.7-.54a.48.48,0,0,0-.54-.52h-1v1.06Z" transform="translate(-411.37 -242.37)"/><path class="cls-3" d="M534.32,294.77a4.09,4.09,0,0,1-.51-1.23,3,3,0,0,1-.09-1.18,2.75,2.75,0,0,1,.62-1.4,3.07,3.07,0,0,1,1.37-.86,10,10,0,0,1,3.16-.63,17.3,17.3,0,0,1-.32,2.17,5.4,5.4,0,0,1-.47,1.51,3.45,3.45,0,0,1-1,1.24A3.39,3.39,0,0,1,534.32,294.77Z" transform="translate(-411.37 -242.37)"/><path class="cls-4" d="M537.8,290.46a6.83,6.83,0,0,0-1.63,1.25,6.71,6.71,0,0,0-1.69,3.27l-.24-.08a10.33,10.33,0,0,1,.44-1.23,7.3,7.3,0,0,1,1.22-1.81A5.09,5.09,0,0,1,537.8,290.46Z" transform="translate(-411.37 -242.37)"/><path class="cls-3" d="M533.34,295.34a2.74,2.74,0,0,0,.34-.82,2,2,0,0,0,.06-.79,1.84,1.84,0,0,0-.41-.94,2.06,2.06,0,0,0-.92-.57,6.69,6.69,0,0,0-2.12-.42,11.58,11.58,0,0,0,.21,1.45,3.62,3.62,0,0,0,.32,1,2.31,2.31,0,0,0,.69.83A2.27,2.27,0,0,0,533.34,295.34Z" transform="translate(-411.37 -242.37)"/><path class="cls-4" d="M531,292.46a4.57,4.57,0,0,1,1.09.84,4.49,4.49,0,0,1,1.13,2.19l.16-.05a6.91,6.91,0,0,0-.29-.83,4.89,4.89,0,0,0-.82-1.21A3.41,3.41,0,0,0,531,292.46Z" transform="translate(-411.37 -242.37)"/><path class="cls-3" d="M533.22,295.37a3,3,0,0,1,.15.69c0,.48,0,.65,0,1.08a2.66,2.66,0,0,0,.15,1.24,2.22,2.22,0,0,0,1,.87,3.41,3.41,0,0,1,1,.65.67.67,0,0,1,.07.9,1.16,1.16,0,0,1-.49.36,2.84,2.84,0,0,0-.81.65l.09.17a2.71,2.71,0,0,1,.39-.35c.26-.19.35-.19.57-.34a1.25,1.25,0,0,0,.56-.63,1,1,0,0,0-.1-.77c-.09-.15-.19-.24-.67-.53-.76-.47-1-.54-1.24-.84a1.08,1.08,0,0,1-.31-.69c0-.26,0-.44,0-.85a2.58,2.58,0,0,1,.09-.85,3.16,3.16,0,0,1,.27-.57c.11-.2.65-.88.45-.78a4.52,4.52,0,0,0-.85,1.39,2.26,2.26,0,0,0-.07-.58l-.07-.29Z" transform="translate(-411.37 -242.37)"/><ellipse class="cls-3" cx="120.66" cy="59.15" rx="2.42" ry="1.22"/><path class="cls-4" d="M534.29,301.79a4,4,0,0,0-.84-.38,4.37,4.37,0,0,0-2.61,0,3.71,3.71,0,0,1,3.5.23Z" transform="translate(-411.37 -242.37)"/><path class="cls-3" d="M520.52,275.91a3.73,3.73,0,0,0-2.38-1.4,12.72,12.72,0,0,0-8.87,1.65,8.66,8.66,0,0,0-3,2.71,4.57,4.57,0,0,0-.58,3.93,3.14,3.14,0,0,0,3.18,2.1,3.05,3.05,0,0,1-2.3-2.56,4.35,4.35,0,0,1,1.1-3.39,7.76,7.76,0,0,1,3-2,14.8,14.8,0,0,1,6.9-.94,2.44,2.44,0,0,1,1.33.41c.89.71.56,2.05.28,3a12.89,12.89,0,0,1-2.68,4.7,31.37,31.37,0,0,1-5.85,5,25.13,25.13,0,0,1-3.07,1.92c-.25.13-1.24.72-1.52.39a.94.94,0,0,1,0-.67,1.64,1.64,0,0,1,.45-.67,8.42,8.42,0,0,1,2.82-2.38c1.91-1.06,2.89,0,3.12-.38.21-.66-.3-1-.87-1.08a3.22,3.22,0,0,0-2.57.57c-.61.38-3.35,2.61-5.62,3.43-2.45.88-5,1.12-4.87.48,0-.16.34-.34,2.32-1.4,3.09-1.64,4-2.19,4.58-3.28.19-.35.61-1.17.29-1.65-.54-.79-2.81-.22-4.14.38a9.29,9.29,0,0,0-4.36,4.58,3.17,3.17,0,0,0-1.85,1c-1,.93-3.19,1.33-3.6.73-.17-.25,0-.65.19-1.05a14.24,14.24,0,0,1,5.25-5.76,5.31,5.31,0,0,0,2-2c.07-.15.15-.34.06-.48-.25-.39-1.68.11-2.26.32a35.15,35.15,0,0,0-7.42,4.23,42.88,42.88,0,0,1-4.3,2.45,9.59,9.59,0,0,0,2.32-4.81c.2-1.28.63-4-1-5.19-1.37-1-3.32-.38-3.69-.25,2.25-1.74,4.69-5,3.55-8a6.53,6.53,0,0,0-3.35-3.2,17.11,17.11,0,0,0-7.85-1.88,9.9,9.9,0,0,0-4.18.83,5.51,5.51,0,0,0-2.89,3c-.08.23-.1.55.12.63a.49.49,0,0,0,.28,0,4.39,4.39,0,0,0,1-.29,7,7,0,0,0,1.4-1.11c1.59-1.35,3.64-1.52,5.64-1.57a8.44,8.44,0,0,1,5.81,1.53c.31.24,2.93,2.41,2.5,5.09-.27,1.69-1.61,2.7-3.14,3.86-1.7,1.29-3.7,1.89-5.59,2.81a50,50,0,0,0-6.23,3.69c-1.78,1.21-3.51,2.5-5.24,3.79a49.28,49.28,0,0,0-4.55,3.69c-1.11,1.06-2.7,2.66-2.3,4.35a2.56,2.56,0,0,0,1.59,1.78,3.76,3.76,0,0,0,2.65-.2,20.43,20.43,0,0,0,6.26-4c7.44-7,7.56-7.08,9-8.66,1.72-1.83,3.09-3.38,4-4.46,1.77-1,3.49-.92,4.2-.08a1.79,1.79,0,0,1,.38,1c.24,2.29-1.05,4.73-1.7,5.81a6,6,0,0,1-1.45,1.72c-.84.67-1.62.89-1.72,1.56a.92.92,0,0,0,.22.76c.43.43,1.36.16,2.07-.1a22.27,22.27,0,0,0,4.77-2.58,19.72,19.72,0,0,1,4.11-1.94c-1.73,2.59-2.49,4.84-1.75,5.57s2.4,0,3.47-.32a10.12,10.12,0,0,0,3-1.65,2,2,0,0,0,.35,1.46c.19.24.63.64,2,.67a10.66,10.66,0,0,0,5.31-1.59c-.08.18-.67,1.56-.06,2.2.08.08.4.38,1.24.29a11.13,11.13,0,0,0,4.83-2.31,39.17,39.17,0,0,0,4.13-3.39c2.35-2.18,4.73-4.37,5.81-7.48a6,6,0,0,0,.4-2.21A2.9,2.9,0,0,0,520.52,275.91Zm-21.23,12.33a5.48,5.48,0,0,1,3.56-2.67c.37-.08,1.24-.26,1.37,0,.21.44-1.74,1.77-2.2,2.08-.28.19-2.53,1.73-2.89,1.32C499,288.84,499.14,288.54,499.28,288.24Zm-25.12-2.6c-1.73,1.84-8.83,9.33-12.87,10.13-.37.07-1.4.28-1.66-.15s.1-.82.39-1.27a21.13,21.13,0,0,1,6-5.87h0c1.19-.88,3-2.17,5.24-3.62,2.08-1.33,6-3.84,6.36-3.38C477.8,281.74,476.79,282.85,474.17,285.64Z" transform="translate(-411.37 -242.37)"/><path class="cls-1" d="M545.75,289.7c-2.32-5.11-7.7-7.57-11-8.64a6.38,6.38,0,0,0,1.42-1.34c1.57-2,1.18-4.09,0-5.1a7.1,7.1,0,0,0-2.55-1.28,8.5,8.5,0,0,1-2-.84,11.21,11.21,0,0,1-4.87-6.09,10.86,10.86,0,0,1,0-6.32c5.3,2.47,6.57,2.14,7.14,1.4a1.79,1.79,0,0,0,.27-.58,1.35,1.35,0,0,1,.36-.64,1.8,1.8,0,0,1,.49-.33,2.42,2.42,0,0,0,1-.78,2.05,2.05,0,0,0,.27-.5.67.67,0,0,1,.14-.24,1.14,1.14,0,0,1,.41-.32,1.34,1.34,0,0,0,.6-.54,1.7,1.7,0,0,0-.17-1.63,4.5,4.5,0,0,1-.29-.72,3.31,3.31,0,0,1,.18-2.07c.56-.89,2.32-4,1.17-7.22a6.79,6.79,0,0,0-2.73-3.34h0a.69.69,0,0,0-.51-.22.64.64,0,0,0-.67.59.56.56,0,0,0,.24.45h0a5.74,5.74,0,0,1,2.52,2.93c1,2.66-.56,5.37-1.1,6.23a4.55,4.55,0,0,0-.28,3,5.75,5.75,0,0,0,.36.91c.08.17.21.44.22.49l-.12.07a2.35,2.35,0,0,0-.78.63,1.91,1.91,0,0,0-.33.57.82.82,0,0,1-.12.23,1.22,1.22,0,0,1-.52.41,3,3,0,0,0-.78.54,2.55,2.55,0,0,0-.67,1.14c0,.07-.06.18-.07.2s-.82.55-6.27-2.05l-.62-.3-.23.65a12.28,12.28,0,0,0-.27,7.75,12.44,12.44,0,0,0,5.39,6.77,9.72,9.72,0,0,0,2.23,1,6,6,0,0,1,2.15,1.05c.72.61,1,1.93-.16,3.4a5.3,5.3,0,0,1-2.3,1.69l-1.81.69,1.88.49c2.67.69,9.16,2.88,11.66,8.39,3.45,7.61-1.52,20.1-14.43,26.57a.62.62,0,0,0,.56,1.11C541.69,312.4,550.33,299.77,545.75,289.7Z" transform="translate(-411.37 -242.37)"/></svg>